<?xml version="1.0" standalone="no"?>
<!DOCTYPE svg PUBLIC "-//W3C//DTD SVG 1.1//EN" "http://www.w3.org/Graphics/SVG/1.1/DTD/svg11.dtd" >
<svg xmlns="http://www.w3.org/2000/svg">
<metadata>Generated by IcoMoon</metadata>
<defs>
<font id="icomoon" horiz-adv-x="1024">
<font-face units-per-em="1024" ascent="960" descent="-64" />
<missing-glyph horiz-adv-x="1024" />
<glyph unicode="&#x20;" horiz-adv-x="512" d="" />
<glyph unicode="&#xe900;" horiz-adv-x="1130" d="M220.285 21.061l-197.384 341.333c-30.535 52.345-30.535 117.776 0 171.212l197.384 341.333c30.535 52.345 86.151 85.061 147.22 85.061h393.678c61.069 0 117.776-32.716 148.311-85.061l197.384-341.333c30.535-52.345 30.535-117.776 0-171.212l-197.384-341.333c-30.535-52.345-87.242-85.061-148.311-85.061h-393.678c-61.069 0-116.686 32.716-147.22 85.061z" />
<glyph unicode="&#xe901;" horiz-adv-x="1130" d="M564.89 187.911c-143.949 0-260.635 116.686-260.635 260.635s116.686 260.635 260.635 260.635 260.635-116.686 260.635-260.635-117.776-260.635-260.635-260.635zM564.89 665.559c-119.957 0-217.014-97.056-217.014-217.014s97.056-217.014 217.014-217.014 217.014 97.056 217.014 217.014-97.056 217.014-217.014 217.014zM634.684 421.282c-5.453 8.724-11.996 16.358-19.629 22.901-5.453 4.362-10.905 7.634-16.358 10.905v83.97c2.181-1.091 4.362-2.181 6.543-4.362 0 0 0 0 0 0 4.362-3.272 10.905-2.181 14.177 2.181 1.091 1.091 1.091 2.181 2.181 3.272 0 0 0 0 0 0 4.362 6.543 3.272 15.267-3.272 19.629-6.543 5.453-13.086 8.724-19.629 10.905v27.263c0 5.453-4.362 9.815-9.815 9.815v0c-5.453 0-9.815-4.362-9.815-9.815v-21.81c-5.453 1.091-9.815 1.091-14.177 1.091-2.181 0-4.362 0-6.543 0v20.72c0 5.453-4.362 9.815-9.815 9.815v0c-5.453 0-9.815-4.362-9.815-9.815v-23.991c-2.181-1.091-5.453-2.181-7.634-3.272-8.724-4.362-16.358-9.815-21.81-16.358s-9.815-14.177-11.996-21.81c-2.181-7.634-3.272-16.358-3.272-23.991 0-10.905 2.181-19.629 6.543-27.263s8.724-13.086 14.177-18.539c5.453-5.453 10.905-8.724 17.448-11.996 3.272-1.091 5.453-2.181 7.634-3.272v-95.966c-4.362 1.091-7.634 3.272-10.905 5.453-5.453 3.272-9.815 6.543-14.177 10.905-1.091 0-1.091 1.091-2.181 1.091-5.453 5.453-14.177 4.362-19.629-1.091v0c-5.453-5.453-5.453-14.177 0-19.629 1.091-1.091 2.181-2.181 4.362-3.272 5.453-4.362 11.996-9.815 19.629-13.086 6.543-3.272 14.177-6.543 22.901-9.815v-25.082c0-5.453 4.362-9.815 9.815-9.815v0c5.453 0 9.815 4.362 9.815 9.815v20.72c3.272 0 5.453 0 8.724 0 4.362 0 8.724 0 11.996 1.091v-20.72c0-5.453 4.362-9.815 9.815-9.815v0c5.453 0 9.815 4.362 9.815 9.815v26.173c7.634 3.272 15.267 7.634 21.81 13.086 6.543 6.543 11.996 14.177 16.358 22.901s6.543 18.539 6.543 29.444c-2.181 11.996-5.453 22.901-9.815 31.625zM564.89 548.873c5.453 0 9.815-1.091 14.177-2.181v-82.88c-5.453 2.181-10.905 4.362-15.267 6.543-2.181 1.091-3.272 1.091-5.453 2.181v76.337c1.091 0 3.272 0 6.543 0zM535.446 482.351c-3.272 3.272-6.543 6.543-8.724 10.905s-3.272 8.724-3.272 15.267c0 10.905 3.272 20.72 9.815 28.354 1.091 2.181 3.272 3.272 4.362 4.362v-59.979c-1.091 0-1.091 1.091-2.181 1.091zM563.8 347.127c-2.181 0-4.362 0-5.453 0v93.785c2.181-1.091 5.453-2.181 7.634-2.181 4.362-1.091 8.724-3.272 13.086-5.453v-83.97c-5.453-2.181-10.905-2.181-15.267-2.181zM607.421 371.118c-2.181-4.362-5.453-8.724-9.815-11.996v61.069c2.181-2.181 4.362-4.362 6.543-6.543 4.362-6.543 7.634-14.177 7.634-23.991 0-7.634-1.091-13.086-4.362-18.539z" />
<glyph unicode="&#xe902;" horiz-adv-x="1130" d="M220.285 21.061l-197.384 341.333c-30.535 52.345-30.535 117.776 0 171.212l197.384 341.333c30.535 52.345 86.151 85.061 147.22 85.061h393.678c61.069 0 117.776-32.716 148.311-85.061l197.384-341.333c30.535-52.345 30.535-117.776 0-171.212l-197.384-341.333c-30.535-52.345-87.242-85.061-148.311-85.061h-393.678c-61.069 0-116.686 32.716-147.22 85.061z" />
<glyph unicode="&#xe903;" horiz-adv-x="1130" d="M789.538 696.094c-27.263 16.358-61.069 4.362-74.155-22.901-6.543-14.177-5.453-30.535 1.091-43.621 4.362-9.815 4.362-21.81 0-31.625l-50.164-112.324c-4.362-9.815-13.086-18.539-23.991-21.81-2.181-1.091-4.362-1.091-7.634-2.181-9.815-4.362-21.81-4.362-32.716 0l-45.802 20.72c-9.815 4.362-16.358 13.086-19.629 22.901-5.453 16.358-17.448 29.444-34.897 34.897-21.81 6.543-45.802-3.272-57.798-21.81-9.815-15.267-10.905-33.806-3.272-49.073 4.362-9.815 5.453-20.72 1.091-30.535l-59.979-129.772c-4.362-9.815-13.086-16.358-22.901-19.629-16.358-5.453-29.444-17.448-34.897-34.897-6.543-22.901 3.272-46.892 22.901-58.888 27.263-16.358 61.069-4.362 74.155 22.901 6.543 14.177 5.453 30.535 0 43.621-4.362 9.815-4.362 20.72 0 30.535l56.707 126.501c4.362 9.815 13.086 17.448 22.901 20.72 2.181 1.091 4.362 1.091 6.543 2.181 9.815 4.362 21.81 4.362 31.625 0l47.983-21.81c9.815-4.362 16.358-13.086 19.629-22.901 5.453-16.358 17.448-29.444 34.897-34.897 21.81-6.543 45.802 3.272 57.798 21.81 9.815 15.267 10.905 33.806 4.362 49.073-4.362 9.815-4.362 20.72 0 29.444l53.436 118.867c4.362 9.815 13.086 16.358 22.901 19.629 15.267 5.453 28.354 17.448 33.806 34.897 6.543 23.991-3.272 47.983-23.991 59.979zM380.592 222.807c-8.724-3.272-17.448 1.091-20.72 8.724-3.272 8.724 1.091 17.448 8.724 20.72 8.724 3.272 17.448-1.091 20.72-8.724 3.272-8.724 0-17.448-8.724-20.72zM491.825 475.808c-8.724-3.272-17.448 1.091-20.72 8.724-3.272 8.724 1.091 17.448 8.724 20.72 8.724 3.272 17.448-1.091 20.72-8.724 4.362-8.724 0-17.448-8.724-20.72zM663.037 397.291c-8.724-3.272-17.448 1.091-20.72 8.724-3.272 8.724 1.091 17.448 8.724 20.72 8.724 3.272 17.448-1.091 20.72-8.724 3.272-8.724 0-18.539-8.724-20.72zM767.727 637.206c-8.724-3.272-17.448 1.091-20.72 8.724-3.272 8.724 1.091 17.448 8.724 20.72 8.724 3.272 17.448-1.091 20.72-8.724 4.362-8.724 0-18.539-8.724-20.72z" />
<glyph unicode="&#xe904;" horiz-adv-x="1130" d="M220.285 21.061l-197.384 341.333c-30.535 52.345-30.535 117.776 0 171.212l197.384 341.333c30.535 52.345 86.151 85.061 147.22 85.061h393.678c61.069 0 117.776-32.716 148.311-85.061l197.384-341.333c30.535-52.345 30.535-117.776 0-171.212l-197.384-341.333c-30.535-52.345-87.242-85.061-148.311-85.061h-393.678c-61.069 0-116.686 32.716-147.22 85.061z" />
<glyph unicode="&#xe905;" horiz-adv-x="1130" d="M776.452 623.029h-94.875v45.802c0 20.72-17.448 38.168-38.168 38.168h-158.126c-20.72 0-38.168-17.448-38.168-38.168v-45.802h-94.875c-26.173 0-46.892-20.72-46.892-46.892v-340.243c0-26.173 20.72-46.892 46.892-46.892v0h424.213c26.173 0 46.892 20.72 46.892 46.892v0 340.243c0 26.173-20.72 46.892-46.892 46.892v0zM504.912 660.106h118.867c6.543 0 10.905-5.453 10.905-10.905v-15.267c0-6.543-5.453-10.905-10.905-10.905h-118.867c-6.543 0-10.905 5.453-10.905 10.905v15.267c0 6.543 5.453 10.905 10.905 10.905zM352.239 258.794v163.578h71.974v-27.263c0-10.905 8.724-19.629 19.629-19.629h8.724c10.905 0 19.629 8.724 19.629 19.629v27.263h187.57v-27.263c0-10.905 8.724-19.629 19.629-19.629h8.724c10.905 0 19.629 8.724 19.629 19.629v27.263h71.974v-163.578c0-13.086-10.905-22.901-22.901-22.901h-380.592c-13.086 0-23.991 9.815-23.991 22.901zM776.452 470.356h-424.213v82.88c0 13.086 10.905 22.901 22.901 22.901h377.321c13.086 0 22.901-10.905 22.901-22.901v-82.88z" />
<glyph unicode="&#xe906;" horiz-adv-x="1130" d="M220.285 21.061l-197.384 341.333c-30.535 52.345-30.535 117.776 0 171.212l197.384 341.333c29.444 52.345 86.151 85.061 147.22 85.061h393.678c61.069 0 117.776-32.716 148.311-85.061l197.384-341.333c30.535-52.345 30.535-117.776 0-171.212l-197.384-341.333c-30.535-52.345-87.242-85.061-148.311-85.061h-393.678c-61.069 0-117.776 32.716-147.22 85.061z" />
<glyph unicode="&#xe907;" horiz-adv-x="1130" d="M774.271 591.404l-52.345 31.625-128.682 76.337c-4.362 2.181-9.815 4.362-14.177 4.362-5.453 0-9.815-1.091-14.177-4.362l-130.863-77.427-51.255-30.535-2.181-1.091v-137.406c0-6.543 0-13.086 1.091-20.72 7.634-122.138 90.513-222.466 197.384-247.548 106.871 25.082 188.66 125.41 197.384 247.548 0 6.543 1.091 13.086 1.091 20.72v138.496h-3.272zM586.701 232.622c-5.453-2.181-11.996-2.181-17.448 0-80.699 27.263-139.587 107.962-146.13 202.837 0 5.453-1.091 11.996-1.091 17.448v103.6c0 5.453 3.272 10.905 7.634 14.177l25.082 14.177 122.138 71.974 121.048-71.974 25.082-15.267c5.453-3.272 7.634-8.724 7.634-14.177v-3.272l-119.957-40.349c-10.905-3.272-17.448-16.358-14.177-27.263 3.272-8.724 10.905-15.267 20.72-15.267 2.181 0 4.362 0 6.543 1.091l106.871 35.987v-37.078l-119.957-40.349c-10.905-3.272-17.448-16.358-14.177-27.263 3.272-8.724 10.905-15.267 20.72-15.267 2.181 0 4.362 0 6.543 1.091l104.69 34.897c-6.543-88.332-64.341-163.578-141.768-189.751z" />
<glyph unicode="&#xe908;" glyph-name="callcenter" horiz-adv-x="1012" d="M917.662 518.892c7.877 0 15.754 0 23.631 0 39.385 0 70.892-31.508 74.831-70.892 0-43.323 0-82.708 0-126.031 0-35.446-35.446-66.954-70.892-70.892-7.877 0-15.754 0-23.631 0-3.938-15.754-3.938-31.508-7.877-47.262-15.754-90.585-66.954-149.662-145.723-189.046-35.446-15.754-74.831-27.569-110.277-35.446-3.938 0-11.815-3.938-11.815-7.877-15.754-23.631-35.446-35.446-63.015-35.446s-51.2 0-78.769 0c-35.446 0-63.015 27.569-66.954 63.015 0 35.446 23.631 63.015 63.015 63.015 27.569 0 55.138 0 82.708 0 23.631 0 43.323-11.815 55.138-31.508 3.938-3.938 7.877-7.877 11.815-7.877 51.2 7.877 98.462 23.631 137.846 55.138 55.138 43.323 82.708 98.462 86.646 165.415 0 106.338 3.938 216.615 0 322.954-7.877 169.354-137.846 315.077-303.262 342.646-192.985 35.446-370.215-78.769-417.477-267.815-7.877-31.508-11.815-63.015-11.815-94.523 0-94.523 0-192.985 0-287.508 0-3.938 0-7.877 0-11.815 0-23.631-7.877-35.446-23.631-35.446s-19.692 11.815-23.631 31.508c0 3.938 0 3.938 0 7.877 0 0 0 0-3.938 3.938-3.938 0-11.815 0-15.754 0-43.323 0-74.831 31.508-78.769 74.831 0 39.385 0 78.769 0 118.154s35.446 70.892 74.831 74.831c19.692 0 19.692 0 19.692 19.692 0 86.646 19.692 165.415 66.954 236.308 94.523 137.846 228.431 200.862 393.846 181.169s315.077-149.662 350.523-326.892c3.938-27.569 3.938-55.138 7.877-86.646 7.877-7.877 7.877-15.754 7.877-27.569zM98.462 471.631c-35.446 7.877-51.2-7.877-51.2-39.385s0-63.015 0-94.523c0-27.569 11.815-39.385 39.385-39.385 11.815 0 15.754 3.938 11.815 15.754 0 47.262 0 98.462 0 145.723 0 3.938 0 7.877 0 11.815zM917.662 298.338c35.446-3.938 51.2 7.877 51.2 43.323 0 31.508 0 59.077 0 90.585s-19.692 47.262-51.2 39.385c0-55.138 0-114.215 0-173.292zM539.569-20.677c11.815 0 27.569 0 39.385 0s19.692 7.877 19.692 19.692c0 11.815-7.877 19.692-19.692 19.692-27.569 0-55.138 0-78.769 0-11.815 0-19.692-7.877-19.692-19.692s7.877-19.692 19.692-19.692c11.815 0 23.631 0 39.385 0zM827.077 377.108c15.754-3.938 27.569 3.938 27.569 15.754 3.938 11.815-3.938 23.631-19.692 27.569-7.877 3.938-11.815 3.938-19.692 3.938-94.523 23.631-185.108 59.077-263.877 114.215-82.708 59.077-153.6 129.969-185.108 232.369 0 15.754-11.815 23.631-23.631 19.692s-19.692-15.754-15.754-27.569c3.938-15.754 11.815-35.446 19.692-51.2 3.938-11.815 3.938-15.754-7.877-23.631-82.708-55.138-129.969-129.969-141.785-228.431-3.938-47.262-3.938-94.523-3.938-141.785 0-78.769 27.569-149.662 78.769-208.738 31.508-35.446 70.892-63.015 114.215-78.769 11.815-3.938 23.631 0 31.508 7.877 3.938 11.815 0 23.631-11.815 31.508-3.938 0-3.938 3.938-7.877 3.938-98.462 47.262-149.662 126.031-157.538 232.369-3.938 43.323 0 82.708 0 126.031s11.815 86.646 35.446 126.031c23.631 43.323 55.138 74.831 98.462 102.4 3.938-3.938 3.938-3.938 7.877-7.877 43.323-63.015 98.462-114.215 161.477-153.6 70.892-43.323 141.785-78.769 220.554-98.462 7.877-3.938 11.815-7.877 11.815-15.754 0-19.692 0-43.323 0-63.015 0-55.138-15.754-106.338-47.262-153.6-23.631-31.508-51.2-59.077-82.708-78.769-11.815-7.877-15.754-19.692-7.877-31.508s19.692-11.815 31.508-3.938c11.815 7.877 23.631 15.754 35.446 23.631 78.769 63.015 118.154 145.723 118.154 248.123 0 19.692 0 39.385 0 59.077 0-3.938 3.938-3.938 3.938-7.877z" />
<glyph unicode="&#xe909;" glyph-name="arrow" horiz-adv-x="1815" d="M902.337-64c-30.416 0-50.693 10.139-70.97 30.416l-800.95 800.95c-40.554 40.554-40.554 101.386 0 141.941s101.386 40.554 141.941 0l729.98-729.98 729.98 729.98c40.554 40.554 101.386 40.554 141.941 0s40.554-101.386 0-141.941l-800.95-800.95c-20.277-20.277-40.554-30.416-70.97-30.416z" />
<glyph unicode="&#xe90a;" glyph-name="home" d="M898.133 450.133v0l-60.444 60.444c-3.556 3.556-5.689 8.533-5.689 13.511v115.911c0 10.667-8.533 19.2-19.2 19.2h-25.6c-10.667 0-19.2-8.533-19.2-19.2v-40.533c0-7.111-8.533-10.667-13.511-5.689l-228.978 228.978c-7.822 7.822-19.911 7.822-27.022 0l-371.2-371.911c-12.089-12.089-13.511-31.289-2.844-44.089 12.089-14.933 34.133-15.644 47.644-2.133l7.822 7.822c4.978 4.978 12.8 1.422 12.8-5.689v-299.378c0-24.178 19.2-43.378 43.378-43.378h160.711c24.178 0 44.089 19.911 44.089 44.089v222.578h142.222v-222.578c0-24.178 19.911-44.089 44.089-44.089h161.422c24.178 0 43.378 19.2 43.378 43.378v299.378c0 7.111 8.533 9.956 12.8 5.689v0 0l7.822-7.822c13.511-13.511 34.844-12.8 47.644 2.133 10.667 12.8 8.533 31.289-2.133 43.378zM768 147.2c0-10.667-8.533-19.2-19.2-19.2h-89.6c-10.667 0-19.2 8.533-19.2 19.2v217.6c0 21.333-17.067 38.4-38.4 38.4h-179.2c-21.333 0-38.4-17.067-38.4-38.4v-217.6c0-10.667-8.533-19.2-19.2-19.2h-89.6c-10.667 0-19.2 8.533-19.2 19.2v334.222c0 4.978 2.133 9.956 5.689 13.511l236.8 236.8c7.822 7.822 19.911 7.822 27.022 0l236.8-236.8c3.556-3.556 5.689-8.533 5.689-13.511v-334.222z" />
<glyph unicode="&#xe90b;" glyph-name="credits_m" d="M512 61.867c-212.622 0-386.133 172.8-386.133 386.133s173.511 385.422 386.133 385.422 386.133-172.8 386.133-386.133-173.511-385.422-386.133-385.422zM512 769.422c-177.778 0-321.422-143.644-321.422-321.422s143.644-322.133 321.422-322.133 322.133 144.356 322.133 322.133-144.356 321.422-322.133 321.422zM615.111 408.889c-7.822 13.511-17.778 24.889-29.156 34.133-7.822 5.689-15.644 11.378-24.178 15.644v125.156c3.556-2.133 6.4-3.556 9.244-5.689 0 0 0 0 0 0 6.4-4.978 15.644-3.556 20.622 2.844 0.711 1.422 2.133 2.844 2.844 4.267 0 0 0 0 0 0 7.111 9.244 4.978 22.756-4.267 29.156-9.956 7.111-19.911 12.8-29.156 16.356v40.533c0 7.822-6.4 14.222-14.222 14.222v0c-7.822 0-14.222-6.4-14.222-14.222v-32.711c-7.111 1.422-14.933 2.133-21.333 2.133-3.556 0-6.4 0-9.956-0.711v31.289c0 7.822-6.4 14.222-14.222 14.222v0c-7.822 0-14.222-6.4-14.222-14.222v-35.556c-4.267-1.422-7.822-2.844-11.378-4.267-13.511-6.4-24.889-14.222-32.711-23.467-8.533-9.956-14.222-20.622-17.778-32.711s-4.978-23.467-4.978-35.556c0-15.644 3.556-29.156 9.244-40.533 5.689-10.667 12.8-19.911 20.622-27.733 7.822-7.111 16.356-13.511 25.6-17.778 4.267-2.133 7.822-3.556 11.378-4.978v-142.933c-5.689 2.133-11.378 4.978-16.356 7.822-7.822 4.978-14.933 9.956-21.333 15.644-0.711 0.711-2.133 1.422-2.844 2.133-8.533 7.111-20.622 7.111-28.444-0.711v0c-8.533-8.533-8.533-21.333 0-29.867 2.133-2.133 4.267-3.556 6.4-5.689 8.533-7.111 17.778-13.511 29.156-19.911 9.956-5.689 21.333-9.956 33.422-14.222v-36.267c0-7.822 6.4-14.222 14.222-14.222v0c7.822 0 14.222 6.4 14.222 14.222v31.289c4.267-0.711 8.533-0.711 12.8-0.711 6.4 0 12.089 0.711 18.489 1.422v-31.289c0-7.822 6.4-14.222 14.222-14.222v0c7.822 0 14.222 6.4 14.222 14.222v39.111c12.089 4.978 22.756 11.378 32 19.2 9.956 9.244 18.489 20.622 24.178 33.422s9.244 27.733 9.244 44.089c0 18.489-3.556 34.133-11.378 47.644zM511.289 597.333c7.111 0 14.222-0.711 21.333-2.844v-123.022c-7.822 3.556-15.644 6.4-23.467 9.244-2.844 0.711-5.689 2.133-7.822 2.844v113.067c3.556 0.711 6.4 0.711 9.956 0.711zM468.622 499.2c-5.689 4.267-9.956 9.244-13.511 15.644s-4.978 13.511-4.978 22.756c0 16.356 4.978 30.578 14.933 41.956 2.133 2.844 4.267 4.978 7.111 6.4v-89.6c-1.422 1.422-2.133 2.133-3.556 2.844zM509.867 297.956c-2.844 0-5.689 0-8.533 0.711v138.667c3.556-1.422 7.822-2.844 12.089-4.267 6.4-2.133 13.511-4.978 19.2-7.822v-124.444c-7.111-2.133-14.933-2.844-22.756-2.844zM576 333.511c-3.556-7.111-8.533-13.511-14.222-18.489v91.733c3.556-2.844 6.4-6.4 9.244-9.956 7.111-9.244 10.667-20.622 10.667-34.844 0-11.378-2.133-20.622-5.689-28.444z" />
<glyph unicode="&#xe90c;" glyph-name="factoring_m" d="M839.822 819.2c-40.533 23.467-91.022 7.111-109.511-34.844-9.956-22.044-8.533-45.511 1.422-65.422 7.111-14.222 6.4-31.289 0-46.222l-75.378-166.4c-7.111-14.933-19.2-27.022-35.556-32-3.556-0.711-7.111-2.133-10.667-3.556-14.933-7.111-32.711-6.4-48.356 0.711l-69.689 31.289c-14.222 6.4-24.178 19.2-29.156 34.133-7.111 23.467-25.6 43.378-52.622 51.2-31.289 9.244-67.556-4.978-85.333-33.422-14.933-23.467-15.644-50.489-4.978-73.244 6.4-14.222 7.111-30.578 0.711-44.8l-86.044-192c-6.4-14.222-19.2-24.178-34.133-29.156-23.467-7.111-43.378-25.6-51.2-52.622-9.244-33.422 4.978-69.689 34.844-87.467 40.533-23.467 91.022-7.111 109.511 34.844 9.244 21.333 8.533 44.8-0.711 64-6.4 14.222-6.4 31.289 0.711 45.511l84.622 187.733c6.4 14.933 18.489 26.311 34.133 31.289 3.556 0.711 7.111 2.133 9.956 3.556 14.933 7.111 31.289 5.689 46.222-0.711l71.111-32c14.222-6.4 24.178-19.2 29.156-34.133 7.111-23.467 25.6-43.378 52.622-51.2 32-9.244 67.556 4.267 85.333 32 14.933 22.756 15.644 49.778 6.4 71.822-6.4 14.222-6.4 30.578-0.711 44.089l78.933 176.356c6.4 14.222 18.489 24.178 33.422 29.156 22.756 7.822 42.667 26.311 49.778 52.622 9.244 35.556-4.978 71.822-34.844 88.889zM232.533 117.333c-12.089-4.978-25.6 1.422-30.578 13.511s1.422 25.6 13.511 30.578c12.089 4.978 25.6-1.422 30.578-13.511s-1.422-25.6-13.511-30.578zM398.222 492.089c-12.089-4.978-25.6 1.422-30.578 13.511s1.422 25.6 13.511 30.578c12.089 4.978 25.6-1.422 30.578-13.511s-1.422-25.6-13.511-30.578zM651.378 375.467c-12.089-4.978-25.6 1.422-30.578 13.511s1.422 25.6 13.511 30.578c12.089 4.978 25.6-1.422 30.578-13.511s-0.711-25.6-13.511-30.578zM807.822 731.733c-12.089-4.978-25.6 1.422-30.578 13.511s1.422 25.6 13.511 30.578c12.089 4.978 25.6-1.422 30.578-13.511 4.267-12.8-1.422-26.311-13.511-30.578z" />
<glyph unicode="&#xe90d;" glyph-name="mercado_m" d="M826.311 709.689h-140.8v68.267c0 31.289-24.889 56.178-56.178 56.178h-235.378c-31.289 0-56.178-24.889-56.178-56.178v-68.267h-140.089c-38.4 0-69.689-31.289-69.689-69.689v-504.889c0-38.4 31.289-69.689 69.689-69.689v0h629.333c38.4 0 69.689 31.289 69.689 69.689v0 504.889c-0.711 38.4-32 69.689-70.4 69.689v0zM423.822 764.444h175.644c9.244 0 16.356-7.111 16.356-16.356v-22.756c0-9.244-7.111-16.356-16.356-16.356h-175.644c-9.244 0-16.356 7.111-16.356 16.356v22.756c0 9.244 7.822 16.356 16.356 16.356zM197.689 169.956v243.2h105.956v-41.244c0-15.644 12.8-28.444 28.444-28.444h12.8c15.644 0 28.444 12.8 28.444 28.444v41.244h278.044v-41.244c0-15.644 12.8-28.444 28.444-28.444h12.8c15.644 0 28.444 12.8 28.444 28.444v41.244h105.956v-243.2c0-19.2-15.644-34.844-34.844-34.844h-560.356c-18.489 0-34.133 15.644-34.133 34.844zM826.311 482.133h-628.622v123.022c0 19.2 15.644 34.844 34.844 34.844h559.644c19.2 0 34.844-15.644 34.844-34.844v-123.022z" />
<glyph unicode="&#xe90e;" glyph-name="contact_m" d="M736 192.711h-448c-17.778 0-32 14.222-32 32v0c0 17.778 14.222 32 32 32h448c17.778 0 32-14.222 32-32v0c0-17.778-14.222-32-32-32zM736 384.711h-448c-17.778 0-32-14.222-32-32v0c0-17.778 14.222-32 32-32h448c17.778 0 32 14.222 32 32v0c0 17.778-14.222 32-32 32zM512 576.711c35.556 0 64 28.444 64 64s-28.444 64-64 64-64-28.444-64-64c0-35.556 28.444-64 64-64zM512 426.667c70.4 0 128 28.444 128 64s-57.6 64-128 64-128-28.444-128-64c0-35.556 57.6-64 128-64zM896 669.867v-541.156c0-35.556-28.444-64-64-64h-640c-35.556 0-64 28.444-64 64v640c0 35.556 28.444 64 64 64h541.156c9.244 0 17.067-3.556 23.467-9.244v0l0.711-0.711c0.711-0.711 0.711-0.711 1.422-1.422l123.022-123.733c2.844-2.133 5.689-4.978 7.822-7.822v0 0c4.267-5.689 6.4-12.089 6.4-19.911zM832 640.711h-64c-35.556 0-64 28.444-64 64v64h-472.889c-21.333 0-39.111-17.778-39.111-39.111v-561.778c0-21.333 17.778-39.111 39.111-39.111h561.778c21.333 0 39.111 17.778 39.111 39.111v472.889z" />
<glyph unicode="&#xe90f;" glyph-name="aboutus_m" d="M900.978 689.778v0 0c-2.133 3.556-4.978 5.689-7.822 7.822l-123.022 123.733c-0.711 0.711-0.711 0.711-1.422 1.422l-0.711 0.711c-6.4 5.689-14.222 9.244-23.467 9.244h-541.156c-35.556 0-64-28.444-64-64v-640c0-35.556 28.444-64 64-64h640c35.556 0 64 28.444 64 64v541.156c0 7.822-2.844 14.222-6.4 19.911zM843.378 167.822c0-21.333-17.778-39.111-39.111-39.111h-561.778c-21.333 0-39.111 17.778-39.111 39.111v561.778c0 21.333 17.778 39.111 39.111 39.111h472.889v-64c0-35.556 28.444-64 64-64h64v-472.889zM490.667 209.067c-14.933 0-27.022 4.978-35.556 14.222s-12.8 22.044-12.8 38.4c0 16.356 4.267 38.4 12.8 66.844s17.067 54.044 25.6 76.8c8.533 22.756 12.8 38.4 12.8 46.222s-2.844 11.378-7.822 11.378c-11.378 0-29.156-19.911-52.622-60.444-4.267-7.822-14.222-9.956-22.044-5.689l-7.822 4.267c-7.822 4.267-10.667 14.933-5.689 22.756 49.778 79.644 95.289 119.467 137.244 119.467 29.867 0 45.511-19.2 45.511-56.889 0-11.378-3.556-29.156-10.667-53.333l-39.111-110.933c-4.267-10.667-5.689-19.911-5.689-28.444s3.556-12.8 9.956-12.8c10.667 0 29.867 17.778 56.889 53.333 5.689 7.822 17.067 8.533 24.178 2.133v0c5.689-4.978 7.111-13.511 2.844-19.911-17.778-30.578-39.111-55.467-63.289-75.378-28.444-21.333-49.778-32-64.711-32zM626.489 633.6c0-14.222-4.978-27.733-14.222-39.822-9.956-12.089-22.756-17.778-39.111-17.778s-29.156 4.978-36.978 14.933c-8.533 9.956-12.089 22.044-12.089 37.689 0 14.933 4.978 28.444 15.644 40.533 9.956 11.378 23.467 17.778 39.822 17.778s28.444-4.978 36.267-15.644c7.111-10.667 10.667-22.756 10.667-37.689z" />
<glyph unicode="&#xe910;" glyph-name="secure_m" d="M803.556 666.311l-78.222 46.222-191.289 113.778c-6.4 3.556-13.511 5.689-21.333 5.689-7.111 0-14.933-2.133-21.333-5.689l-273.067-162.133v-204.089c0-9.956 0-19.911 0.711-29.867 12.089-182.044 133.689-329.956 292.267-366.933 159.289 36.978 280.178 185.6 292.267 366.933 0.711 9.956 0.711 19.911 0.711 29.867v205.511l-0.711 0.711zM524.8 133.689c-8.533-2.844-17.067-2.844-25.6 0-119.467 40.533-206.933 160.711-216.178 301.511-0.711 8.533-0.711 17.067-0.711 25.6v153.6c0 8.533 4.267 16.356 12.089 20.622l36.978 22.044 181.333 107.378 216.889-128.711c7.111-4.267 12.089-12.089 12.089-20.622v-4.978l-178.489-59.733c-17.067-5.689-25.6-23.467-19.911-40.533 4.267-13.511 17.067-22.044 30.578-22.044 3.556 0 7.111 0.711 9.956 1.422l157.867 52.622v-55.467l-178.489-59.733c-17.067-5.689-25.6-23.467-19.911-40.533 4.267-13.511 17.067-22.044 30.578-22.044 3.556 0 7.111 0.711 9.956 1.422l155.733 51.911c-14.933-132.267-100.267-244.622-214.756-283.733z" />
<glyph unicode="&#xe911;" glyph-name="faq_m" d="M512 61.867c-212.622 0-386.133 172.8-386.133 386.133s173.511 385.422 386.133 385.422 386.133-172.8 386.133-386.133-173.511-385.422-386.133-385.422zM512 769.422c-177.778 0-321.422-143.644-321.422-321.422s143.644-322.133 321.422-322.133 322.133 144.356 322.133 322.133-144.356 321.422-322.133 321.422zM484.267 343.467c-8.533 0-15.644 6.4-16.356 14.933v2.133c-4.267 35.556 7.822 74.667 41.244 114.489 29.867 34.844 46.222 61.156 46.222 90.311 0 33.422-21.333 56.178-62.578 56.889-15.644 0-32.711-3.556-46.933-9.244-11.378-4.978-24.178 1.422-29.156 12.8v0c-4.267 10.667 0.711 23.467 11.378 28.444 21.333 9.956 49.778 15.644 76.089 15.644 76.089 0 110.222-46.933 110.222-97.422 0-44.8-24.889-77.511-56.889-115.2-29.156-34.133-39.822-63.289-37.689-97.422v0c0.711-9.244-7.111-17.067-16.356-17.067h-19.2zM455.111 257.422c2.844 21.333 18.489 35.556 39.111 35.556 23.467 0 39.111-17.067 39.111-41.956 0-19.911-10.667-35.556-29.156-39.822-27.733-6.4-52.622 17.778-49.067 46.222z" />
<glyph unicode="&#xe912;" horiz-adv-x="1130" d="M220.285 21.061l-197.384 341.333c-30.535 52.345-30.535 117.776 0 171.212l197.384 341.333c30.535 52.345 86.151 85.061 147.22 85.061h393.678c61.069 0 117.776-32.716 148.311-85.061l197.384-341.333c30.535-52.345 30.535-117.776 0-171.212l-197.384-341.333c-30.535-52.345-87.242-85.061-148.311-85.061h-393.678c-61.069 0-116.686 32.716-147.22 85.061z" />
<glyph unicode="&#xe913;" horiz-adv-x="1130" d="M776.452 623.029h-94.875v45.802c0 20.72-17.448 38.168-38.168 38.168h-158.126c-20.72 0-38.168-17.448-38.168-38.168v-45.802h-94.875c-26.173 0-46.892-20.72-46.892-46.892v-340.243c0-26.173 20.72-46.892 46.892-46.892v0h424.213c26.173 0 46.892 20.72 46.892 46.892v0 340.243c0 26.173-20.72 46.892-46.892 46.892v0zM504.912 660.106h118.867c6.543 0 10.905-5.453 10.905-10.905v-15.267c0-6.543-5.453-10.905-10.905-10.905h-118.867c-6.543 0-10.905 5.453-10.905 10.905v15.267c0 6.543 5.453 10.905 10.905 10.905zM352.239 258.794v163.578h71.974v-27.263c0-10.905 8.724-19.629 19.629-19.629h8.724c10.905 0 19.629 8.724 19.629 19.629v27.263h187.57v-27.263c0-10.905 8.724-19.629 19.629-19.629h8.724c10.905 0 19.629 8.724 19.629 19.629v27.263h71.974v-163.578c0-13.086-10.905-22.901-22.901-22.901h-380.592c-13.086 0-23.991 9.815-23.991 22.901zM776.452 470.356h-424.213v82.88c0 13.086 10.905 22.901 22.901 22.901h377.321c13.086 0 22.901-10.905 22.901-22.901v-82.88z" />
<glyph unicode="&#xe914;" horiz-adv-x="1130" d="M220.285 21.061l-197.384 341.333c-30.535 52.345-30.535 117.776 0 171.212l197.384 341.333c30.535 52.345 86.151 85.061 147.22 85.061h393.678c61.069 0 117.776-32.716 148.311-85.061l197.384-341.333c30.535-52.345 30.535-117.776 0-171.212l-197.384-341.333c-30.535-52.345-87.242-85.061-148.311-85.061h-393.678c-61.069 0-116.686 32.716-147.22 85.061z" />
<glyph unicode="&#xe915;" horiz-adv-x="1130" d="M801.534 455.088c-17.448 16.358-41.44 20.72-62.16 23.991-3.272 1.091-6.543 1.091-9.815 2.181-2.181 1.091-5.453 1.091-8.724 2.181-28.354 6.543-47.983 13.086-47.983 35.987 0 15.267 5.453 29.444 9.815 43.621 6.543 17.448 11.996 34.897 10.905 55.617-2.181 35.987-17.448 68.703-41.44 85.061-9.815 7.634-21.81 11.996-33.806 11.996-17.448 0-31.625-9.815-37.078-26.173-4.362-10.905-3.272-22.901-2.181-33.806 0-3.272 0-5.453 0-8.724 1.091-16.358-1.091-29.444-5.453-42.53-8.724-25.082-27.263-49.073-41.44-66.522l-7.634-9.815c-10.905-14.177-22.901-28.354-35.987-40.349-6.543-5.453-13.086-6.543-21.81-8.724-1.091 0-65.431-1.091-110.143-1.091-25.082 0-44.711-20.72-44.711-45.802v-134.134c0-25.082 20.72-45.802 45.802-45.802 34.897 0 77.427 0 80.699 0 5.453 0 11.996 1.091 16.358 1.091h2.181c5.453-1.091 9.815-1.091 15.267-2.181 4.362 0 9.815-1.091 14.177-2.181 5.453-1.091 11.996-6.543 17.448-11.996 3.272-3.272 6.543-6.543 9.815-8.724s6.543-4.362 9.815-6.543c9.815-7.634 19.629-14.177 31.625-19.629 14.177-6.543 29.444-7.634 44.711-9.815 7.634-1.091 14.177-2.181 21.81-3.272 4.362 0 8.724-1.091 11.996-1.091 11.996-1.091 23.991-3.272 35.987-3.272 8.724 0 15.267 1.091 22.901 2.181 23.991 6.543 39.259 26.173 39.259 49.073 11.996 5.453 22.901 15.267 30.535 28.354 6.543 11.996 8.724 23.991 6.543 35.987 22.901 15.267 35.987 43.621 29.444 68.703 9.815 7.634 17.448 18.539 19.629 33.806 3.272 18.539-3.272 39.259-16.358 52.345zM786.266 410.377c-1.091-6.543-4.362-15.267-14.177-17.448-5.453-1.091-9.815-5.453-10.905-9.815-2.181-5.453-1.091-13.086 2.181-18.539 3.272-4.362 4.362-14.177 2.181-21.81-3.272-9.815-9.815-16.358-20.72-20.72-4.362-1.091-8.724-4.362-10.905-8.724-2.181-5.453-2.181-11.996 1.091-16.358s2.181-14.177-2.181-22.901c-3.272-6.543-8.724-10.905-13.086-10.905-1.091 0-1.091 0-2.181 0h-2.181c-5.453 0-13.086-2.181-17.448-8.724-2.181-3.272-3.272-8.724-1.091-13.086 2.181-6.543 2.181-13.086-1.091-18.539-2.181-3.272-5.453-5.453-9.815-6.543-7.634-2.181-16.358-2.181-23.991-2.181-22.901 2.181-46.892 4.362-69.793 8.724l-10.905 2.181c-5.453 1.091-11.996 2.181-16.358 4.362-8.724 4.362-17.448 10.905-27.263 18.539-3.272 2.181-5.453 4.362-8.724 6.543-2.181 2.181-4.362 4.362-6.543 6.543-5.453 5.453-13.086 11.996-20.72 14.177-7.634 4.362-16.358 4.362-22.901 4.362-21.81 2.181-31.625 9.815-37.078 29.444-5.453 20.72-5.453 42.53-5.453 61.069v4.362c0 17.448 0 40.349 9.815 56.707 4.362 7.634 14.177 9.815 23.991 10.905 14.177 2.181 26.173 7.634 37.078 15.267 1.091 1.091 3.272 2.181 4.362 3.272 4.362 3.272 7.634 7.634 10.905 10.905 17.448 18.539 32.716 38.168 45.802 56.707 3.272 4.362 5.453 8.724 8.724 13.086 13.086 18.539 27.263 38.168 32.716 63.25 4.362 17.448 3.272 32.716 3.272 51.255v2.181c-1.091 10.905-1.091 22.901 5.453 23.991 0 0 1.091 0 1.091 0 9.815 0 22.901-13.086 30.535-25.082 7.634-15.267 11.996-30.535 11.996-44.711 0-15.267-5.453-29.444-10.905-43.621-6.543-17.448-11.996-35.987-10.905-55.617 2.181-27.263 23.991-50.164 53.436-57.798 8.724-2.181 17.448-3.272 27.263-5.453 16.358-2.181 33.806-5.453 47.983-13.086 8.724-4.362 18.539-14.177 17.448-26.173z" />
<glyph unicode="&#xe916;" horiz-adv-x="1130" d="M220.285 21.061l-197.384 341.333c-30.535 52.345-30.535 117.776 0 171.212l197.384 341.333c30.535 52.345 86.151 85.061 147.22 85.061h393.678c61.069 0 117.776-32.716 148.311-85.061l197.384-341.333c30.535-52.345 30.535-117.776 0-171.212l-197.384-341.333c-30.535-52.345-87.242-85.061-148.311-85.061h-393.678c-61.069 0-116.686 32.716-147.22 85.061z" />
<glyph unicode="&#xe917;" horiz-adv-x="1130" d="M796.081 661.197h-209.38v23.991c0 11.996-9.815 21.81-21.81 21.81s-21.81-9.815-21.81-21.81v-23.991h-209.38c-13.086 0-22.901-9.815-22.901-22.901v-334.79c0-13.086 9.815-22.901 22.901-22.901h81.789l-59.979-74.155c-4.362-4.362-1.091-11.996 4.362-11.996h44.711c2.181 0 3.272 1.091 4.362 2.181l62.16 73.065c2.181 4.362 4.362 7.634 5.453 10.905h171.212c2.181-3.272 3.272-6.543 6.543-10.905l62.16-73.065c1.091-1.091 3.272-2.181 4.362-2.181h44.711c6.543 0 8.724 7.634 4.362 11.996l-58.888 74.155h85.061c13.086 0 22.901 9.815 22.901 22.901v334.79c-1.091 11.996-10.905 22.901-22.901 22.901zM776.452 334.040c0-6.543-5.453-10.905-10.905-10.905h-401.312c-6.543 0-10.905 5.453-10.905 10.905v272.63c0 6.543 5.453 10.905 10.905 10.905h400.222c6.543 0 10.905-5.453 10.905-10.905v-272.63zM735.012 505.252l-3.272-14.177-10.905-51.255c-2.181-7.634-9.815-13.086-17.448-10.905v0c-7.634 2.181-13.086 9.815-10.905 17.448l6.543 31.625-109.052-71.974-16.358 25.082-41.44 63.25-116.686-76.337c-5.453-3.272-11.996-2.181-15.267 3.272l-4.362 6.543c-3.272 5.453-2.181 11.996 3.272 15.267l141.768 92.694 57.798-88.332 85.061 55.617-31.625 6.543c-7.634 2.181-13.086 9.815-10.905 17.448v0c1.091 7.634 9.815 13.086 17.448 10.905l65.431-13.086c7.634-3.272 13.086-11.996 10.905-19.629z" />
<glyph unicode="&#xe918;" horiz-adv-x="1130" d="M220.285 21.061l-197.384 341.333c-30.535 52.345-30.535 117.776 0 171.212l197.384 341.333c30.535 52.345 86.151 85.061 147.22 85.061h393.678c61.069 0 117.776-32.716 148.311-85.061l197.384-341.333c30.535-52.345 30.535-117.776 0-171.212l-197.384-341.333c-30.535-52.345-87.242-85.061-148.311-85.061h-393.678c-61.069 0-116.686 32.716-147.22 85.061z" />
<glyph unicode="&#xe919;" horiz-adv-x="1130" d="M824.435 452.907v0l-40.349 40.349c-2.181 2.181-3.272 5.453-3.272 8.724v78.518c0 7.634-5.453 13.086-13.086 13.086h-17.448c-7.634 0-13.086-5.453-13.086-13.086v-27.263c0-4.362-5.453-7.634-8.724-4.362l-153.764 153.764c-5.453 5.453-13.086 5.453-18.539 0l-250.82-250.82c-7.634-7.634-8.724-20.72-2.181-29.444 8.724-9.815 22.901-10.905 31.625-1.091l5.453 5.453c3.272 3.272 8.724 1.091 8.724-3.272v-202.837c0-16.358 13.086-29.444 29.444-29.444h109.052c16.358 0 29.444 13.086 29.444 29.444v152.673h95.966v-150.492c0-16.358 13.086-29.444 29.444-29.444h109.052c16.358 0 29.444 13.086 29.444 29.444v201.747c0 4.362 5.453 6.543 8.724 3.272v0 0l5.453-5.453c8.724-8.724 23.991-8.724 31.625 1.091 6.543 9.815 5.453 21.81-2.181 29.444zM737.193 248.98c0-7.634-5.453-13.086-13.086-13.086h-59.979c-7.634 0-13.086 5.453-13.086 13.086v147.22c0 14.177-11.996 26.173-26.173 26.173h-121.048c-14.177 0-26.173-11.996-26.173-26.173v-147.22c0-7.634-5.453-13.086-13.086-13.086h-59.979c-7.634 0-13.086 5.453-13.086 13.086v225.738c0 3.272 1.091 6.543 3.272 8.724l160.307 160.307c5.453 5.453 13.086 5.453 18.539 0l159.216-159.216c2.181-2.181 3.272-5.453 3.272-8.724v-226.829z" />
<glyph unicode="&#xe91a;" horiz-adv-x="1130" d="M220.285 21.061l-197.384 341.333c-30.535 52.345-30.535 117.776 0 171.212l197.384 341.333c30.535 52.345 86.151 85.061 147.22 85.061h393.678c61.069 0 117.776-32.716 148.311-85.061l197.384-341.333c30.535-52.345 30.535-117.776 0-171.212l-197.384-341.333c-30.535-52.345-87.242-85.061-148.311-85.061h-393.678c-61.069 0-116.686 32.716-147.22 85.061z" />
<glyph unicode="&#xe91b;" horiz-adv-x="1130" d="M603.059 633.934v-3.272c0-5.453-4.362-9.815-9.815-9.815h-52.345c-5.453 0-9.815 4.362-9.815 9.815v3.272c0 5.453 4.362 9.815 9.815 9.815h4.362c5.453 0 9.815 4.362 9.815 9.815v9.815h22.901v-8.724c0-5.453 4.362-9.815 9.815-9.815h4.362c5.453 0 10.905-5.453 10.905-10.905zM439.48 422.373h-47.983c-6.543 0-11.996-5.453-11.996-11.996v-20.72c0-6.543 5.453-11.996 11.996-11.996h68.703c6.543 0 11.996 5.453 11.996 11.996 0 17.448-15.267 32.716-32.716 32.716zM742.645 422.373h-47.983c-18.539 0-32.716-14.177-32.716-32.716 0-6.543 5.453-11.996 11.996-11.996h68.703c6.543 0 11.996 5.453 11.996 11.996v20.72c0 6.543-5.453 11.996-11.996 11.996zM859.331 536.878v-17.448c0-7.634-6.543-14.177-14.177-14.177h-9.815c6.543-6.543 10.905-15.267 10.905-25.082v-164.669c0-16.358-13.086-29.444-29.444-29.444h-16.358v-68.703c0-14.177-11.996-26.173-26.173-26.173h-40.349c-14.177 0-26.173 11.996-26.173 26.173v68.703h-282.445v-68.703c0-14.177-11.996-26.173-26.173-26.173h-40.349c-14.177 0-26.173 11.996-26.173 26.173v68.703h-16.358c-16.358 0-29.444 13.086-29.444 29.444v164.669c0 9.815 4.362 18.539 10.905 25.082h-14.177c-7.634 0-14.177 6.543-14.177 14.177v17.448c0 7.634 6.543 14.177 14.177 14.177h51.255l25.082 100.328 5.453 29.444c3.272 17.448 19.629 30.535 37.078 30.535h323.885c18.539 0 33.806-13.086 37.078-30.535l32.716-130.863h49.073c7.634 0 14.177-5.453 14.177-13.086zM376.23 515.067h235.553c0 27.263 22.901 50.164 50.164 50.164s50.164-22.901 50.164-50.164h41.44v4.362l-30.535 118.867c-3.272 14.177-15.267 25.082-30.535 25.082h-254.092c-14.177 0-27.263-10.905-30.535-25.082l-31.625-123.229zM799.353 458.36c0 7.634-5.453 13.086-13.086 13.086h-440.571c-7.634 0-13.086-5.453-13.086-13.086v-111.233c0-7.634 5.453-13.086 13.086-13.086h441.661c7.634 0 13.086 5.453 13.086 13.086v111.233z" />
<glyph unicode="&#xe91c;" horiz-adv-x="1130" d="M220.285 21.061l-197.384 341.333c-30.535 52.345-30.535 117.776 0 171.212l197.384 341.333c30.535 52.345 86.151 85.061 147.22 85.061h393.678c61.069 0 117.776-32.716 148.311-85.061l197.384-341.333c30.535-52.345 30.535-117.776 0-171.212l-197.384-341.333c-30.535-52.345-87.242-85.061-148.311-85.061h-393.678c-61.069 0-116.686 32.716-147.22 85.061z" />
<glyph unicode="&#xe91d;" horiz-adv-x="1130" d="M805.896 650.292c-30.535 30.535-69.793 46.892-113.414 46.892-42.53 0-82.88-16.358-113.414-46.892l-15.267-15.267-15.267 15.267c-30.535 30.535-69.793 46.892-113.414 46.892-42.53 0-82.88-16.358-113.414-46.892-62.16-62.16-62.16-163.578 0-225.738l223.557-223.557c3.272-3.272 8.724-5.453 13.086-6.543 1.091 0 3.272 0 4.362 0 6.543 0 13.086 2.181 17.448 7.634l223.557 223.557c64.341 61.069 64.341 162.488 2.181 224.647zM770.999 459.45l-206.109-206.109-206.109 206.109c-42.53 42.53-42.53 112.324 0 155.945 20.72 20.72 49.073 32.716 78.518 32.716s56.707-11.996 78.518-32.716l32.716-32.716c8.724-8.724 26.173-8.724 34.897 0l32.716 32.716c20.72 20.72 49.073 32.716 78.518 32.716s56.707-11.996 78.518-32.716c40.349-43.621 40.349-113.414-2.181-155.945z" />
<glyph unicode="&#xe91e;" horiz-adv-x="1130" d="M220.285 21.061l-197.384 341.333c-30.535 52.345-30.535 117.776 0 171.212l197.384 341.333c30.535 52.345 86.151 85.061 147.22 85.061h393.678c61.069 0 117.776-32.716 148.311-85.061l197.384-341.333c30.535-52.345 30.535-117.776 0-171.212l-197.384-341.333c-30.535-52.345-87.242-85.061-148.311-85.061h-393.678c-61.069 0-116.686 32.716-147.22 85.061z" />
<glyph unicode="&#xe91f;" horiz-adv-x="1130" d="M818.982 700.456c-14.177 14.177-32.716 21.81-52.345 21.81-21.81 0-41.44-8.724-57.798-23.991l-63.25-67.612c-8.724-8.724-21.81-13.086-33.806-8.724l-229.010 68.703c-11.996 3.272-23.991 0-32.716-8.724l-38.168-38.168c-5.453-5.453-8.724-13.086-8.724-20.72s3.272-15.267 8.724-20.72l2.181-2.181 182.117-100.328c8.724-5.453 10.905-17.448 4.362-25.082l-56.707-62.16c-5.453-5.453-9.815-10.905-14.177-17.448l-58.888 15.267c-17.448 4.362-37.078-1.091-50.164-13.086l-14.177-14.177c-9.815-9.815-9.815-27.263 0-37.078l2.181-2.181 99.237-50.164 5.453-5.453 50.164-99.237 2.181-2.181c5.453-5.453 11.996-7.634 18.539-7.634s13.086 2.181 18.539 7.634l14.177 14.177c13.086 13.086 18.539 31.625 13.086 50.164l-15.267 59.979c5.453 4.362 10.905 8.724 16.358 13.086l62.16 56.707c7.634 6.543 19.629 5.453 25.082-4.362l100.328-182.117 1.091-2.181 2.181-2.181c5.453-5.453 13.086-8.724 20.72-8.724s15.267 3.272 20.72 8.724l38.168 38.168c8.724 8.724 11.996 21.81 8.724 32.716l-68.703 230.1c-3.272 11.996 0 25.082 8.724 33.806l67.612 63.25c15.267 15.267 23.991 34.897 23.991 55.617-1.091 22.901-8.724 42.53-22.901 56.707zM792.809 614.305l-81.789-76.337c-8.724-8.724-13.086-21.81-8.724-33.806l68.703-231.191c3.272-11.996 0-23.991-8.724-32.716l-19.629-19.629-116.686 210.471c-5.453 8.724-17.448 10.905-25.082 4.362l-93.785-86.151c-5.453-5.453-11.996-10.905-19.629-14.177l-11.996-5.453 22.901-90.513c1.091-3.272 0-7.634-2.181-9.815v0c-5.453-5.453-13.086-3.272-16.358 2.181l-39.259 77.427-13.086 13.086-77.427 38.168c-6.543 3.272-7.634 11.996-2.181 16.358v0c2.181 2.181 6.543 3.272 9.815 2.181l89.423-22.901 5.453 11.996c3.272 7.634 8.724 14.177 14.177 20.72l86.151 93.785c6.543 7.634 5.453 19.629-4.362 25.082l-210.471 115.595 19.629 19.629c8.724 8.724 21.81 11.996 32.716 8.724l229.010-68.703c11.996-3.272 25.082 0 33.806 8.724l77.427 82.88c8.724 8.724 20.72 14.177 33.806 14.177 10.905 0 21.81-4.362 29.444-11.996s11.996-18.539 11.996-30.535c1.091-11.996-4.362-22.901-13.086-31.625z" />
<glyph unicode="&#xe920;" glyph-name="user_menu" horiz-adv-x="208" d="M204.8 448c0-56.554-45.846-102.4-102.4-102.4s-102.4 45.846-102.4 102.4c0 56.554 45.846 102.4 102.4 102.4s102.4-45.846 102.4-102.4zM204.8 857.6c0-56.554-45.846-102.4-102.4-102.4s-102.4 45.846-102.4 102.4c0 56.554 45.846 102.4 102.4 102.4s102.4-45.846 102.4-102.4zM204.8 38.4c0-56.554-45.846-102.4-102.4-102.4s-102.4 45.846-102.4 102.4c0 56.554 45.846 102.4 102.4 102.4s102.4-45.846 102.4-102.4z" />
<glyph unicode="&#xe921;" glyph-name="user_data" d="M812.755 104.28h-597.93c-25.063 0-42.965 17.902-42.965 42.965v0c0 25.063 17.902 42.965 42.965 42.965h597.93c25.063 0 42.965-17.902 42.965-42.965v0c0-21.483-21.483-42.965-42.965-42.965zM812.755 362.070h-597.93c-25.063 0-42.965-17.902-42.965-42.965v0c0-25.063 17.902-42.965 42.965-42.965h597.93c25.063 0 42.965 17.902 42.965 42.965v0c0 25.063-21.483 42.965-42.965 42.965zM512 619.86c46.545 0 85.93 39.385 85.93 85.93s-39.385 85.93-85.93 85.93-85.93-39.385-85.93-85.93c0-50.126 39.385-85.93 85.93-85.93zM512 415.776c93.091 0 171.86 39.385 171.86 85.93s-75.189 85.93-171.86 85.93-171.86-39.385-171.86-85.93c0-46.545 78.769-85.93 171.86-85.93zM1024 741.594v-723.245c0-46.545-39.385-85.93-85.93-85.93h-852.14c-46.545 0-85.93 39.385-85.93 85.93v855.72c0 46.545 39.385 85.93 85.93 85.93h723.245c10.741 0 21.483-3.58 32.224-10.741v0 0c0 0 0 0 0 0l164.699-168.28c3.58-3.58 7.161-7.161 10.741-10.741v0 0c7.161-7.161 7.161-17.902 7.161-28.643zM941.65 702.21h-85.93c-46.545 0-85.93 39.385-85.93 85.93v85.93h-633.734c-28.643 0-50.126-21.483-50.126-50.126v-751.888c0-28.643 25.063-53.706 53.706-53.706h751.888c28.643 0 53.706 25.063 53.706 53.706v630.154z" />
<glyph unicode="&#xe922;" glyph-name="user_subasta" d="M580.028 616.28c-7.161 7.161-14.322 10.741-21.483 14.322v114.573c3.58 0 7.161-3.58 7.161-7.161 0 0 0 0 0 0 7.161-3.58 14.322-3.58 17.902 3.58 0 0 3.58 3.58 3.58 3.58s0 0 0 0c7.161 7.161 3.58 21.483-3.58 28.643-10.741 7.161-17.902 10.741-25.063 14.322v35.804c0 7.161-7.161 14.322-14.322 14.322s-14.322-7.161-14.322-14.322v-28.643c-7.161 0-14.322 0-21.483 0-3.58 0-7.161 0-10.741 0v32.224c0 7.161-7.161 14.322-14.322 14.322s-14.322-7.161-14.322-14.322v-32.224c-3.58 0-7.161-3.58-10.741-3.58-14.322-7.161-21.483-14.322-32.224-21.483-7.161-10.741-14.322-17.902-17.902-28.643s-3.58-21.483-3.58-32.224c0-14.322 3.58-28.643 7.161-35.804 3.58-10.741 10.741-17.902 17.902-25.063s14.322-10.741 25.063-17.902c3.58-3.58 7.161-3.58 10.741-3.58v-132.476c7.161-3.58 0 0-3.58 0-7.161 3.58-14.322 10.741-17.902 14.322 0 0 0 0-3.58 3.58-7.161 7.161-17.902 7.161-25.063 0s-7.161-21.483 0-28.643c0 0 3.58-3.58 7.161-3.58 7.161-7.161 17.902-14.322 25.063-17.902 10.741-3.58 21.483-10.741 32.224-14.322v-32.224c0-7.161 7.161-14.322 14.322-14.322s14.322 7.161 14.322 14.322v28.643c3.58 0 7.161 0 10.741 0 7.161 0 10.741 0 17.902 0v-28.643c0-7.161 7.161-14.322 14.322-14.322s14.322 7.161 14.322 14.322v35.804c10.741 3.58 21.483 10.741 28.643 17.902 10.741 7.161 17.902 17.902 21.483 32.224 7.161 10.741 7.161 25.063 7.161 39.385 0 17.902-3.58 32.224-10.741 42.965-10.741 10.741-21.483 21.483-32.224 32.224zM476.196 666.406c0 0-3.58 0 0 0-7.161 7.161-14.322 10.741-14.322 17.902-3.58 7.161-3.58 14.322-3.58 21.483 0 14.322 3.58 28.643 14.322 39.385 0 0 0 0 3.58 3.58v-82.35zM533.483 483.804c-7.161 0-14.322-3.58-21.483-3.58-3.58 0-3.58 0-7.161 0v128.895c3.58 0 7.161-3.58 10.741-3.58 7.161-3.58 10.741-3.58 17.902-7.161v-114.573zM533.483 641.343c-7.161 3.58-14.322 7.161-21.483 7.161-3.58 0-3.58 0-7.161 3.58v107.413c3.58 0 7.161 0 10.741 0 7.161 0 14.322 0 17.902-3.58v-114.573zM572.867 516.028c-3.58-7.161-7.161-10.741-14.322-17.902v85.93c3.58-3.58 7.161-7.161 7.161-10.741 7.161-7.161 10.741-17.902 10.741-32.224 0-10.741 0-17.902-3.58-25.063zM794.853 960h-565.706c-57.287 0-103.832-46.545-103.832-103.832v-469.035c0-57.287 46.545-103.832 103.832-103.832h175.441v-264.951c0-42.965 32.224-75.189 75.189-75.189h53.706c42.965 0 75.189 32.224 75.189 75.189v264.951h186.182c57.287 0 103.832 46.545 103.832 103.832v469.035c3.58 57.287-46.545 103.832-103.832 103.832zM812.755 387.133c0-10.741-7.161-17.902-17.902-17.902h-565.706c-10.741 0-17.902 7.161-17.902 17.902v469.035c0 10.741 7.161 17.902 17.902 17.902h565.706c10.741 0 17.902-7.161 17.902-17.902v-469.035z" />
<glyph unicode="&#xe923;" glyph-name="user_newpass" d="M708.923 448c3.58 0 7.161 3.58 10.741 3.58-3.58 0-7.161 0-10.741 3.58s-7.161 3.58-10.741 7.161l-46.545 25.063 17.902 28.643 46.545-28.643c3.58-3.58 7.161-3.58 10.741-7.161s7.161-3.58 7.161-7.161c0 3.58-3.58 7.161-3.58 10.741s0 7.161 0 10.741v53.706h32.224v-53.706c0-3.58 0-7.161 0-10.741s0-7.161-3.58-10.741c3.58 3.58 3.58 3.58 7.161 7.161s7.161 3.58 10.741 7.161l46.545 25.063 17.902-28.643-46.545-25.063c-3.58-3.58-7.161-3.58-10.741-3.58s-7.161-3.58-10.741-3.58c7.161 0 14.322-3.58 21.483-7.161l46.545-25.063-21.483-32.224-46.545 25.063c-3.58 3.58-7.161 3.58-10.741 7.161s-7.161 3.58-7.161 7.161c3.58-7.161 3.58-14.322 3.58-21.483v-53.706h-32.224v53.706c0 3.58 0 7.161 0 10.741s0 7.161 3.58 10.741c-3.58-3.58-3.58-3.58-7.161-7.161s-7.161-3.58-10.741-7.161l-46.545-25.063-17.902 28.643 46.545 25.063c7.161 7.161 10.741 7.161 14.322 7.161zM236.308 444.42l-46.545-25.063 17.902-28.643 46.545 25.063c3.58 3.58 7.161 3.58 10.741 7.161s3.58 3.58 7.161 7.161c0-3.58-3.58-7.161-3.58-10.741s0-7.161 0-10.741v-53.706h32.224v53.706c0 7.161 0 14.322-3.58 21.483 0-3.58 3.58-7.161 7.161-7.161s7.161-3.58 10.741-7.161l42.965-28.643 17.902 28.643-46.545 25.063c-7.161 3.58-14.322 7.161-21.483 7.161 3.58 0 7.161 0 10.741 3.58s7.161 3.58 10.741 3.58l46.545 25.063-17.902 35.804-46.545-25.063c-3.58-3.58-7.161-3.58-10.741-7.161s-7.161-3.58-7.161-7.161c0 3.58 3.58 7.161 3.58 10.741s0 7.161 0 10.741v53.706h-32.224v-53.706c0-3.58 0-7.161 0-10.741s0-7.161 3.58-10.741c-3.58 3.58-3.58 3.58-7.161 7.161s-7.161 3.58-10.741 7.161l-46.545 28.643-17.902-28.643 46.545-25.063c3.58-3.58 7.161-3.58 10.741-7.161s7.161-3.58 10.741-3.58c-3.58 0-7.161 0-10.741-3.58s-3.58-3.58-7.161-7.161zM1020.42 487.385c-17.902 250.629-218.406 451.133-469.035 472.615-286.434 21.483-526.322-193.343-551.385-465.455-3.58-25.063 17.902-46.545 42.965-46.545 21.483 0 39.385 17.902 42.965 39.385 17.902 225.566 221.986 404.587 458.294 386.685 207.664-14.322 379.524-186.182 393.846-393.846 17.902-250.629-179.021-461.874-426.070-461.874-96.671 0-182.601 32.224-254.21 85.93l53.706 53.706c7.161 7.161 3.58 21.483-10.741 21.483h-143.217c-17.902 0-32.224-14.322-32.224-32.224v-35.804c0 0 0 0 0 0v-107.413c0-10.741 14.322-17.902 21.483-10.741l50.126 50.126c85.93-68.028 196.923-107.413 315.077-107.413 293.594 0 533.483 250.629 508.42 551.385zM465.455 444.42l-46.545-25.063 17.902-28.643 46.545 25.063c3.58 3.58 7.161 3.58 10.741 7.161s3.58 3.58 7.161 7.161c0-3.58-3.58-7.161-3.58-10.741s0-7.161 0-10.741v-53.706h32.224v53.706c0 7.161 0 14.322-3.58 21.483 3.58-3.58 3.58-3.58 7.161-7.161s7.161-3.58 10.741-7.161l46.545-25.063 17.902 28.643-46.545 25.063c-7.161 3.58-14.322 7.161-21.483 7.161 3.58 0 7.161 0 10.741 3.58s7.161 3.58 10.741 3.58l46.545 25.063-17.902 28.643-46.545-25.063c-3.58-3.58-7.161-3.58-10.741-7.161s-7.161-3.58-7.161-7.161c0 3.58 3.58 7.161 3.58 10.741s0 7.161 0 10.741v53.706h-32.224v-53.706c0-3.58 0-7.161 0-10.741s0-7.161 3.58-10.741c-3.58 3.58-3.58 3.58-7.161 7.161s-7.161 3.58-10.741 7.161l-46.545 28.643-17.902-28.643 46.545-25.063c3.58-3.58 7.161-3.58 10.741-7.161s7.161-3.58 10.741-3.58c-3.58 0-7.161 0-10.741-3.58s-7.161 0-10.741-3.58z" />
<glyph unicode="&#xe924;" glyph-name="user_off" horiz-adv-x="1069" d="M676.438 130.336v-108.38c0-44.847-37.372-85.956-85.956-85.956h-504.526c-44.847 0-85.956 37.372-85.956 85.956v852.088c0 48.584 37.372 85.956 85.956 85.956h508.263c44.847 0 85.956-37.372 85.956-85.956v-108.38c0-22.423-18.686-41.109-41.109-41.109s-41.109 18.686-41.109 41.109v67.27c0 22.423-18.686 41.109-41.109 41.109h-429.781c-22.423 0-41.109-18.686-41.109-41.109v-769.869c0-22.423 18.686-41.109 41.109-41.109h422.307c22.423 0 41.109 18.686 41.109 41.109v67.27c0 22.423 18.686 41.109 41.109 41.109 26.161 0 44.847-18.686 44.847-41.109zM1068.847 455.474c0 0 0 0 0 0 0 3.737 0 3.737-3.737 7.474 0 0 0 3.737 0 3.737s0 0 0 3.737c0 0-3.737 3.737-3.737 3.737l-254.131 254.131c-14.949 14.949-33.635 14.949-48.584 0s-14.949-33.635 0-48.584l198.073-198.073h-620.38c-18.686 0-33.635-14.949-33.635-33.635s14.949-33.635 33.635-33.635h616.642l-198.073-198.073c-14.949-14.949-14.949-33.635 0-48.584 7.474-7.474 14.949-11.212 22.423-11.212s18.686 3.737 22.423 11.212l254.131 254.131c0 0 3.737 3.737 3.737 3.737s0 0 0 3.737c0 0 0 3.737 0 3.737s0 3.737 0 3.737c0 0 0 3.737 0 3.737 14.949 3.737 14.949 7.474 11.212 14.949z" />
<glyph unicode="&#xe925;" glyph-name="user_cc" d="M512-60.42c-279.273 0-508.42 229.147-508.42 508.42s229.147 508.42 508.42 508.42 508.42-229.147 508.42-508.42-225.566-508.42-508.42-508.42zM512 874.070c-232.727 0-422.49-193.343-422.49-426.070s189.762-426.070 426.070-426.070 426.070 189.762 426.070 426.070-193.343 426.070-429.65 426.070zM648.056 397.874c-10.741 17.902-21.483 32.224-39.385 42.965-10.741 7.161-21.483 14.322-32.224 21.483v164.699c3.58-3.58 7.161-3.58 10.741-7.161 0 0 0 0 0 0 7.161-7.161 21.483-3.58 28.643 3.58 0 3.58 3.58 3.58 3.58 7.161 0 0 0 0 0 0 10.741 10.741 7.161 28.643-7.161 39.385s-25.063 17.902-39.385 21.483v50.126c0 10.741-7.161 17.902-17.902 17.902v0c-10.741 0-17.902-7.161-17.902-17.902v-42.965c-10.741 0-17.902 3.58-28.643 3.58-3.58 0-7.161 0-14.322 0v39.385c0 10.741-7.161 17.902-17.902 17.902v0c-10.741 0-17.902-7.161-17.902-17.902v-46.545c-3.58 0-10.741-3.58-14.322-7.161-17.902-7.161-32.224-17.902-42.965-32.224s-17.902-28.643-25.063-42.965c-3.58-14.322-7.161-32.224-7.161-46.545 0-21.483 3.58-39.385 10.741-53.706s17.902-25.063 28.643-35.804c10.741-10.741 21.483-17.902 32.224-21.483 7.161-3.58 10.741-3.58 14.322-7.161v-189.762c-7.161 3.58-14.322 7.161-21.483 10.741-10.741 7.161-17.902 14.322-28.643 21.483 0 0-3.58 3.58-3.58 3.58-10.741 10.741-28.643 10.741-39.385 0v0c-10.741-10.741-10.741-28.643 0-39.385 3.58-3.58 3.58-3.58 7.161-7.161 10.741-10.741 25.063-17.902 39.385-25.063s28.643-14.322 42.965-17.902v-46.545c0-10.741 7.161-17.902 17.902-17.902v0c10.741 0 17.902 7.161 17.902 17.902v39.385c7.161 0 10.741 0 17.902 0s17.902 0 25.063 3.58v-42.965c0-10.741 7.161-17.902 17.902-17.902v0c10.741 0 17.902 7.161 17.902 17.902v50.126c14.322 7.161 28.643 14.322 42.965 25.063s25.063 25.063 32.224 42.965c7.161 17.902 10.741 35.804 10.741 57.287 14.322 25.063 7.161 46.545-3.58 64.448zM512 644.923c10.741 0 17.902 0 28.643-3.58v-161.119c-10.741 3.58-21.483 7.161-32.224 10.741-3.58 0-7.161 3.58-10.741 3.58v150.378c7.161 0 10.741 0 14.322 0zM454.713 516.028c-7.161 7.161-14.322 10.741-17.902 21.483-3.58 7.161-7.161 17.902-7.161 28.643 0 21.483 7.161 39.385 21.483 57.287 3.58 3.58 7.161 7.161 10.741 7.161v-118.154c-3.58 0-3.58 3.58-7.161 3.58zM512 251.077c-3.58 0-7.161 0-10.741 0v182.601c3.58 0 10.741-3.58 14.322-3.58 7.161-3.58 17.902-7.161 25.063-10.741v-164.699c-10.741-3.58-17.902-3.58-28.643-3.58zM597.93 297.622c-3.58-10.741-10.741-17.902-17.902-25.063v121.734c3.58-3.58 7.161-7.161 14.322-14.322 10.741-10.741 14.322-28.643 14.322-46.545-3.58-14.322-7.161-25.063-10.741-35.804z" />
</font>
</defs>
</svg>
