<?xml version="1.0" encoding="utf-8"?>
<!-- Generator: Adobe Illustrator 18.0.0, SVG Export Plug-In . SVG Version: 6.00 Build 0)  -->
<!DOCTYPE svg PUBLIC "-//W3C//DTD SVG 1.1//EN" "http://www.w3.org/Graphics/SVG/1.1/DTD/svg11.dtd">
<svg version="1.1" id="Capa_1" xmlns="http://www.w3.org/2000/svg" xmlns:xlink="http://www.w3.org/1999/xlink" x="0px" y="0px"
	 viewBox="0 0 141.6 27.9" enable-background="new 0 0 141.6 27.9" xml:space="preserve">
<g>
	<g>
		<g>
			<path fill="#3B933D" d="M9.1,3.8l3.9,15l3.9-15c0.3-1,1.2-1.7,2.2-1.7h4.3v23.1h-2.6c-1.1,0-2.1-0.9-2.1-2.1V19l0.4-9.6L15,23.7
				c-0.3,0.9-1.1,1.5-2,1.5h-0.1c-0.9,0-1.7-0.6-2-1.5L6.8,9.3L7.2,19v4.2c0,1.1-0.9,2.1-2.1,2.1H2.5V2.1h4.3
				C7.9,2.1,8.8,2.8,9.1,3.8z"/>
			<path fill="#3B933D" d="M26.4,16.1c0-1.3,0.2-2.5,0.5-3.6c0.3-1,0.8-1.9,1.4-2.6s1.3-1.2,2.2-1.6c0.9-0.4,1.8-0.5,2.9-0.5
				c1.1,0,2,0.2,2.9,0.5c0.9,0.4,1.6,0.9,2.2,1.6c0.6,0.7,1.1,1.6,1.4,2.6c0.3,1,0.5,2.2,0.5,3.6v1.1c0,1.4-0.2,2.5-0.5,3.6
				c-0.3,1-0.8,1.9-1.4,2.6c-0.6,0.7-1.3,1.2-2.2,1.6c-0.9,0.4-1.8,0.5-2.9,0.5c-1.1,0-2-0.2-2.9-0.5c-0.9-0.4-1.6-0.9-2.2-1.6
				s-1.1-1.6-1.4-2.6c-0.3-1-0.5-2.2-0.5-3.6V16.1z M31,17.2c0,1.6,0.2,2.8,0.7,3.5c0.4,0.7,1,1.1,1.8,1.1c0.8,0,1.4-0.4,1.8-1.1
				c0.4-0.7,0.6-1.9,0.6-3.5v-1.1c0-1.6-0.2-2.7-0.7-3.5c-0.4-0.8-1-1.1-1.8-1.1c-0.8,0-1.4,0.4-1.8,1.1c-0.4,0.8-0.6,1.9-0.6,3.5
				V17.2z"/>
			<path fill="#3B933D" d="M42.6,16.1c0-1.3,0.2-2.5,0.5-3.6c0.3-1,0.8-1.9,1.4-2.6c0.6-0.7,1.3-1.2,2.2-1.6
				c0.9-0.4,1.8-0.5,2.9-0.5c1.1,0,2,0.2,2.9,0.5c0.9,0.4,1.6,0.9,2.2,1.6c0.6,0.7,1.1,1.6,1.4,2.6c0.3,1,0.5,2.2,0.5,3.6v1.1
				c0,1.4-0.2,2.5-0.5,3.6c-0.3,1-0.8,1.9-1.4,2.6c-0.6,0.7-1.3,1.2-2.2,1.6c-0.9,0.4-1.8,0.5-2.9,0.5c-1.1,0-2-0.2-2.9-0.5
				c-0.9-0.4-1.6-0.9-2.2-1.6c-0.6-0.7-1.1-1.6-1.4-2.6c-0.3-1-0.5-2.2-0.5-3.6V16.1z M47.1,17.2c0,1.6,0.2,2.8,0.7,3.5
				c0.4,0.7,1,1.1,1.8,1.1c0.8,0,1.4-0.4,1.8-1.1c0.4-0.7,0.6-1.9,0.6-3.5v-1.1c0-1.6-0.2-2.7-0.7-3.5c-0.4-0.8-1-1.1-1.8-1.1
				c-0.8,0-1.4,0.4-1.8,1.1c-0.4,0.8-0.6,1.9-0.6,3.5V17.2z"/>
			<path fill="#3B933D" d="M63.4,8.1l0.1,1.7c0.5-0.7,1.1-1.2,1.7-1.5c0.7-0.3,1.4-0.5,2.2-0.5c0.7,0,1.3,0.1,1.8,0.3
				c0.6,0.2,1,0.6,1.4,1.1c0.4,0.5,0.7,1.2,0.9,2c0.2,0.8,0.3,1.9,0.3,3.1v10.9h-1.9c-1.4,0-2.6-1.2-2.6-2.6v-8.3c0-0.5,0-1-0.1-1.4
				c-0.1-0.4-0.2-0.6-0.4-0.9c-0.2-0.2-0.4-0.4-0.6-0.4c-0.2-0.1-0.5-0.1-0.9-0.1c-0.4,0-0.8,0.1-1.1,0.3c-0.3,0.2-0.6,0.5-0.8,0.9
				v9.9c0,1.4-1.2,2.6-2.6,2.6h-1.9V8.1H63.4z"/>
			<path fill="#3B933D" d="M82.9,20.6c0-0.2-0.1-0.4-0.2-0.6c-0.1-0.2-0.3-0.4-0.5-0.6c-0.2-0.2-0.5-0.4-0.9-0.6
				c-0.4-0.2-0.8-0.4-1.4-0.6c-0.8-0.3-1.5-0.6-2.1-1c-0.6-0.3-1.1-0.7-1.5-1.1s-0.7-0.9-0.9-1.4c-0.2-0.5-0.3-1.1-0.3-1.8
				c0-0.7,0.1-1.4,0.4-2c0.3-0.6,0.7-1.2,1.2-1.7c0.5-0.5,1.1-0.8,1.9-1.1c0.7-0.3,1.6-0.4,2.5-0.4c1,0,1.8,0.1,2.6,0.4
				c0.8,0.3,1.4,0.6,2,1.1c0.5,0.5,1,1,1.2,1.7c0.3,0.7,0.4,1.4,0.4,2.2h-3.1c-0.7,0-1.3-0.4-1.5-1c-0.1-0.2-0.1-0.4-0.3-0.5
				C82.1,11.2,81.7,11,81,11c-0.5,0-0.9,0.1-1.2,0.4c-0.3,0.3-0.5,0.7-0.5,1.2c0,0.2,0,0.4,0.2,0.6c0.1,0.2,0.3,0.3,0.5,0.5
				c0.2,0.2,0.5,0.3,0.9,0.5c0.4,0.2,0.8,0.4,1.4,0.6c0.9,0.3,1.6,0.7,2.2,1c0.6,0.3,1.2,0.7,1.6,1.2c0.4,0.4,0.7,0.9,0.9,1.5
				c0.2,0.5,0.3,1.2,0.3,1.9c0,0.8-0.1,1.5-0.4,2.1s-0.7,1.2-1.3,1.6c-0.5,0.4-1.2,0.8-2,1S82,25.5,81,25.5c-1,0-2-0.2-2.8-0.5
				c-0.8-0.3-1.5-0.8-2-1.3c-0.5-0.5-0.9-1.1-1.2-1.8c-0.3-0.7-0.4-1.4-0.4-2.1h2.9c0.7,0,1.3,0.5,1.5,1.1c0,0,0,0,0,0
				c0.1,0.3,0.3,0.5,0.5,0.7c0.2,0.2,0.4,0.3,0.7,0.4c0.3,0.1,0.6,0.1,0.9,0.1C82.3,22.3,82.9,21.7,82.9,20.6z"/>
			<path fill="#3B933D" d="M89.6,16.1c0-1.3,0.2-2.5,0.5-3.6c0.3-1,0.8-1.9,1.4-2.6s1.3-1.2,2.2-1.6c0.9-0.4,1.8-0.5,2.9-0.5
				c1.1,0,2,0.2,2.9,0.5c0.9,0.4,1.6,0.9,2.2,1.6c0.6,0.7,1.1,1.6,1.4,2.6c0.3,1,0.5,2.2,0.5,3.6v1.1c0,1.4-0.2,2.5-0.5,3.6
				c-0.3,1-0.8,1.9-1.4,2.6c-0.6,0.7-1.3,1.2-2.2,1.6c-0.9,0.4-1.8,0.5-2.9,0.5c-1.1,0-2-0.2-2.9-0.5c-0.9-0.4-1.6-0.9-2.2-1.6
				s-1.1-1.6-1.4-2.6c-0.3-1-0.5-2.2-0.5-3.6V16.1z M94.1,17.2c0,1.6,0.2,2.8,0.7,3.5c0.4,0.7,1,1.1,1.8,1.1c0.8,0,1.4-0.4,1.8-1.1
				c0.4-0.7,0.6-1.9,0.6-3.5v-1.1c0-1.6-0.2-2.7-0.7-3.5c-0.4-0.8-1-1.1-1.8-1.1c-0.8,0-1.4,0.4-1.8,1.1c-0.4,0.8-0.6,1.9-0.6,3.5
				V17.2z"/>
			<path fill="#3B933D" d="M105.8,16.1c0-1.3,0.2-2.5,0.5-3.6c0.3-1,0.8-1.9,1.4-2.6s1.3-1.2,2.2-1.6c0.9-0.4,1.8-0.5,2.9-0.5
				c1.1,0,2,0.2,2.9,0.5c0.9,0.4,1.6,0.9,2.2,1.6c0.6,0.7,1.1,1.6,1.4,2.6c0.3,1,0.5,2.2,0.5,3.6v1.1c0,1.4-0.2,2.5-0.5,3.6
				c-0.3,1-0.8,1.9-1.4,2.6c-0.6,0.7-1.3,1.2-2.2,1.6c-0.9,0.4-1.8,0.5-2.9,0.5c-1.1,0-2-0.2-2.9-0.5c-0.9-0.4-1.6-0.9-2.2-1.6
				s-1.1-1.6-1.4-2.6c-0.3-1-0.5-2.2-0.5-3.6V16.1z M110.3,17.2c0,1.6,0.2,2.8,0.7,3.5c0.4,0.7,1,1.1,1.8,1.1c0.8,0,1.4-0.4,1.8-1.1
				c0.4-0.7,0.6-1.9,0.6-3.5v-1.1c0-1.6-0.2-2.7-0.7-3.5c-0.4-0.8-1-1.1-1.8-1.1c-0.8,0-1.4,0.4-1.8,1.1c-0.4,0.8-0.6,1.9-0.6,3.5
				V17.2z"/>
			<path fill="#3B933D" d="M126.6,8.1l0.1,1.7c0.5-0.7,1.1-1.2,1.7-1.5c0.7-0.3,1.4-0.5,2.2-0.5c0.7,0,1.3,0.1,1.8,0.3
				c0.6,0.2,1,0.6,1.4,1.1c0.4,0.5,0.7,1.2,0.9,2c0.2,0.8,0.3,1.9,0.3,3.1v10.9h-1.9c-1.4,0-2.6-1.2-2.6-2.6v-8.3c0-0.5,0-1-0.1-1.4
				c-0.1-0.4-0.2-0.6-0.4-0.9c-0.2-0.2-0.4-0.4-0.6-0.4c-0.2-0.1-0.5-0.1-0.9-0.1c-0.4,0-0.8,0.1-1.1,0.3c-0.3,0.2-0.6,0.5-0.8,0.9
				v9.9c0,1.4-1.2,2.6-2.6,2.6h-1.9V8.1H126.6z"/>
		</g>
	</g>
</g>
<g>
	<path fill="#3B933D" d="M138.5,9c-0.8,0-1.4-0.3-1.9-0.8c-0.5-0.5-0.8-1.2-0.8-2c0-0.8,0.3-1.4,0.8-1.9c0.5-0.5,1.1-0.8,1.9-0.8
		s1.4,0.3,1.9,0.8c0.5,0.5,0.7,1.2,0.7,2s-0.2,1.4-0.7,1.9C139.9,8.8,139.3,9,138.5,9z M138.5,4c-0.6,0-1.2,0.2-1.6,0.7
		c-0.4,0.4-0.6,1-0.6,1.6c0,0.6,0.2,1.2,0.6,1.6s0.9,0.7,1.6,0.7c0.6,0,1.2-0.2,1.6-0.7c0.4-0.4,0.6-1,0.6-1.6s-0.2-1.2-0.6-1.6
		C139.6,4.2,139.1,4,138.5,4z M138,6.7v1.1h-0.6v-3h1.1c0.4,0,0.7,0.1,0.8,0.2c0.2,0.1,0.3,0.4,0.3,0.7c0,0.3,0,0.5-0.1,0.7
		c-0.1,0.1-0.2,0.3-0.4,0.3l0.6,1.2h-0.6l-0.5-1.1H138z M138,5.2v1h0.6c0.3,0,0.5-0.2,0.5-0.5s-0.2-0.5-0.6-0.5H138z"/>
</g>
</svg>
